<svg width="17" height="16" viewBox="0 0 17 16" fill="none" xmlns="http://www.w3.org/2000/svg">
<path d="M8.5 0C4.08171 0 0.5 3.58171 0.5 8C0.5 12.4183 4.08171 16 8.5 16C12.9183 16 16.5 12.4183 16.5 8C16.5 3.58171 12.9183 0 8.5 0ZM12.2785 11.1856C12.2272 11.2458 10.9954 12.6608 8.73494 12.6608C6.00294 12.6608 4.07416 10.6201 4.07416 7.96507C4.07416 5.34239 6.07429 3.33923 8.71165 3.33923C10.8715 3.33923 12.0008 4.54294 12.0478 4.59419C12.1058 4.65732 12.1411 4.73787 12.1483 4.82323C12.1555 4.90859 12.1343 4.99394 12.0878 5.0659L11.3658 6.18381C11.2352 6.38597 10.9538 6.42094 10.7776 6.25784C10.7701 6.25094 9.92187 5.48752 8.78152 5.48752C7.2939 5.48752 6.39713 6.57058 6.39713 7.94177C6.39713 9.21926 7.22016 10.5125 8.79316 10.5125C10.0415 10.5125 10.899 9.59836 10.9075 9.5891C11.073 9.40958 11.361 9.42674 11.5045 9.62306L12.2964 10.706C12.3477 10.7763 12.3739 10.8619 12.3707 10.9489C12.3675 11.0359 12.335 11.1193 12.2785 11.1856Z" fill="#D9D9D9"/>
</svg>
