<svg width="10" height="5" viewBox="0 0 10 5" fill="none" xmlns="http://www.w3.org/2000/svg">
<path d="M5.16667 3.71183L1.71796 0.234131L1.71796 0.234127C1.6282 0.143623 1.50628 0.092627 1.37898 0.092627C1.25168 0.092627 1.12976 0.143623 1.04 0.234127C0.950265 0.324603 0.9 0.447141 0.9 0.574741C0.9 0.702341 0.950265 0.824879 1.04 0.915356L4.82765 4.73433L4.82769 4.73437L4.89869 4.66395L5.16667 3.71183ZM5.16667 3.71183L8.61537 0.234131L8.61537 0.234127C8.65981 0.189319 8.71262 0.153732 8.77079 0.129438C8.82896 0.105142 8.89134 0.092627 8.95435 0.092627C9.01737 0.092627 9.07975 0.105142 9.13792 0.129438C9.19609 0.153732 9.24889 0.189319 9.29333 0.234127C9.33777 0.278932 9.37298 0.332079 9.39698 0.390512C9.42099 0.448944 9.43333 0.511542 9.43333 0.574741C9.43333 0.63794 9.42099 0.700539 9.39698 0.75897C9.37298 0.817403 9.33777 0.87055 9.29333 0.915356L5.50569 4.73433M5.16667 3.71183L5.50569 4.73433M5.50569 4.73433C5.50567 4.73435 5.50566 4.73436 5.50565 4.73437L5.50569 4.73433Z" fill="#545454" stroke="#545454" stroke-width="0.2"/>
</svg>
