<svg width="20" height="12" viewBox="0 0 20 12" fill="none" xmlns="http://www.w3.org/2000/svg">
<path d="M2.46844 1.22138L2.46843 1.22137C2.29623 1.04774 2.06249 0.950049 1.8186 0.950049C1.5747 0.950049 1.34097 1.04774 1.16876 1.22137C0.996582 1.39498 0.9 1.63026 0.9 1.87542C0.9 2.12057 0.996582 2.35585 1.16876 2.52946L9.35012 10.7785C9.43536 10.8645 9.53662 10.9328 9.64814 10.9794C9.75966 11.026 9.87923 11.0501 10 11.0501C10.1208 11.0501 10.2403 11.026 10.3519 10.9794C10.4634 10.9328 10.5646 10.8646 10.6498 10.7785C10.6498 10.7785 10.6499 10.7785 10.6499 10.7785L18.8312 2.52946C18.9165 2.44349 18.9841 2.34148 19.0302 2.22927C19.0763 2.11706 19.1 1.99682 19.1 1.87542C19.1 1.75401 19.0763 1.63377 19.0302 1.52156C18.9841 1.40935 18.9165 1.30734 18.8312 1.22137C18.746 1.13541 18.6447 1.06717 18.5332 1.0206C18.4217 0.974029 18.3022 0.950049 18.1814 0.950049C18.0607 0.950049 17.9411 0.974029 17.8296 1.0206C17.7181 1.06717 17.6168 1.13541 17.5316 1.22137L17.5316 1.22138L10 8.81626L2.46844 1.22138Z" fill="white" stroke="white" stroke-width="0.2"/>
</svg>
