<svg width="23" height="22" viewBox="0 0 23 22" fill="none" xmlns="http://www.w3.org/2000/svg">
<path d="M3.16666 3.68515C3.16666 3.50328 3.23891 3.32885 3.36751 3.20024C3.49612 3.07164 3.67054 2.99939 3.85242 2.99939H4.36263C5.23126 2.99939 5.75244 3.58366 6.0496 4.12678C6.24801 4.48886 6.39157 4.90855 6.50403 5.28892C6.53445 5.28652 6.56495 5.2853 6.59547 5.28526H18.023C18.7819 5.28526 19.3305 6.01126 19.1221 6.74182L17.4506 12.6019C17.3008 13.1275 16.9837 13.59 16.5475 13.9193C16.1113 14.2486 15.5796 14.4268 15.0331 14.4269H9.59453C9.04363 14.427 8.50797 14.2461 8.06988 13.912C7.63179 13.578 7.31552 13.1094 7.16968 12.5781L6.47477 10.0435L5.32269 6.15938L5.32178 6.15207C5.17914 5.63363 5.04564 5.14811 4.84632 4.78603C4.65522 4.434 4.50161 4.37091 4.36354 4.37091H3.85242C3.67054 4.37091 3.49612 4.29866 3.36751 4.17006C3.23891 4.04145 3.16666 3.86703 3.16666 3.68515ZM7.80515 9.71072L8.49183 12.2151C8.62898 12.7107 9.07975 13.0554 9.59453 13.0554H15.0331C15.2815 13.0554 15.5232 12.9745 15.7215 12.8248C15.9198 12.6752 16.064 12.465 16.1321 12.2261L17.7204 6.65679H6.90177L7.79235 9.66225L7.80515 9.71072ZM10.9386 17.1718C10.9386 17.6568 10.746 18.1219 10.403 18.4649C10.0601 18.8078 9.59493 19.0005 9.10993 19.0005C8.62493 19.0005 8.15979 18.8078 7.81684 18.4649C7.4739 18.1219 7.28123 17.6568 7.28123 17.1718C7.28123 16.6868 7.4739 16.2217 7.81684 15.8787C8.15979 15.5358 8.62493 15.3431 9.10993 15.3431C9.59493 15.3431 10.0601 15.5358 10.403 15.8787C10.746 16.2217 10.9386 16.6868 10.9386 17.1718ZM9.5671 17.1718C9.5671 17.0506 9.51894 16.9343 9.4332 16.8485C9.34746 16.7628 9.23118 16.7146 9.10993 16.7146C8.98868 16.7146 8.87239 16.7628 8.78666 16.8485C8.70092 16.9343 8.65275 17.0506 8.65275 17.1718C8.65275 17.2931 8.70092 17.4093 8.78666 17.4951C8.87239 17.5808 8.98868 17.629 9.10993 17.629C9.23118 17.629 9.34746 17.5808 9.4332 17.4951C9.51894 17.4093 9.5671 17.2931 9.5671 17.1718ZM17.3391 17.1718C17.3391 17.6568 17.1464 18.1219 16.8035 18.4649C16.4605 18.8078 15.9954 19.0005 15.5104 19.0005C15.0254 19.0005 14.5602 18.8078 14.2173 18.4649C13.8743 18.1219 13.6817 17.6568 13.6817 17.1718C13.6817 16.6868 13.8743 16.2217 14.2173 15.8787C14.5602 15.5358 15.0254 15.3431 15.5104 15.3431C15.9954 15.3431 16.4605 15.5358 16.8035 15.8787C17.1464 16.2217 17.3391 16.6868 17.3391 17.1718ZM15.9676 17.1718C15.9676 17.0506 15.9194 16.9343 15.8336 16.8485C15.7479 16.7628 15.6316 16.7146 15.5104 16.7146C15.3891 16.7146 15.2728 16.7628 15.1871 16.8485C15.1014 16.9343 15.0532 17.0506 15.0532 17.1718C15.0532 17.2931 15.1014 17.4093 15.1871 17.4951C15.2728 17.5808 15.3891 17.629 15.5104 17.629C15.6316 17.629 15.7479 17.5808 15.8336 17.4951C15.9194 17.4093 15.9676 17.2931 15.9676 17.1718Z" fill="#E30613"/>
<rect x="13.749" width="8" height="8" rx="4" fill="#3771C8"/>
<path d="M15.971 6V5.592L17.681 3.942C17.833 3.798 17.945 3.672 18.017 3.564C18.093 3.452 18.143 3.35 18.167 3.258C18.195 3.162 18.209 3.07 18.209 2.982C18.209 2.766 18.133 2.596 17.981 2.472C17.829 2.348 17.607 2.286 17.315 2.286C17.091 2.286 16.889 2.324 16.709 2.4C16.529 2.472 16.373 2.586 16.241 2.742L15.833 2.388C15.993 2.184 16.207 2.028 16.475 1.92C16.747 1.808 17.045 1.752 17.369 1.752C17.661 1.752 17.915 1.8 18.131 1.896C18.347 1.988 18.513 2.122 18.629 2.298C18.749 2.474 18.809 2.682 18.809 2.922C18.809 3.058 18.791 3.192 18.755 3.324C18.719 3.456 18.651 3.596 18.551 3.744C18.451 3.892 18.307 4.058 18.119 4.242L16.595 5.712L16.451 5.478H18.989V6H15.971Z" fill="white"/>
</svg>
