<svg width="18" height="17" viewBox="0 0 18 17" fill="none" xmlns="http://www.w3.org/2000/svg">
<path d="M8.99999 16.8175C7.8611 16.8175 6.78471 16.5987 5.77082 16.1609C4.75693 15.7231 3.87166 15.1259 3.11499 14.3692C2.35777 13.6125 1.76055 12.7273 1.32332 11.7134C0.886101 10.6995 0.667212 9.6231 0.666656 8.48421C0.666656 7.33143 0.885545 6.25171 1.32332 5.24505C1.7611 4.23838 2.35832 3.35643 3.11499 2.59921C3.87166 1.84199 4.75666 1.24477 5.76999 0.807546C6.78332 0.370323 7.85999 0.151434 8.99999 0.150879C10.1528 0.150879 11.2328 0.369768 12.24 0.807546C13.2472 1.24532 14.1289 1.84255 14.885 2.59921C15.6422 3.35588 16.2394 4.23782 16.6767 5.24505C17.1139 6.25227 17.3328 7.33199 17.3333 8.48421C17.3333 9.6231 17.1144 10.6995 16.6767 11.7134C16.2389 12.7273 15.6417 13.6128 14.885 14.37C14.1283 15.1267 13.2464 15.7239 12.2392 16.1617C11.2319 16.5995 10.1522 16.8181 8.99999 16.8175ZM8.99999 15.1092C9.3611 14.6092 9.6736 14.0884 9.93749 13.5467C10.2014 13.005 10.4167 12.4287 10.5833 11.8175H7.41666C7.58332 12.4287 7.7986 13.005 8.06249 13.5467C8.32638 14.0884 8.63888 14.6092 8.99999 15.1092ZM6.83332 14.7759C6.58332 14.3175 6.36471 13.8417 6.17749 13.3484C5.99027 12.855 5.83388 12.3448 5.70832 11.8175H3.24999C3.65277 12.512 4.15638 13.1162 4.76082 13.63C5.36527 14.1439 6.0561 14.5259 6.83332 14.7759ZM11.1667 14.7759C11.9444 14.5259 12.6355 14.1439 13.24 13.63C13.8444 13.1162 14.3478 12.512 14.75 11.8175H12.2917C12.1667 12.3453 12.0105 12.8559 11.8233 13.3492C11.6361 13.8425 11.4172 14.3181 11.1667 14.7759ZM2.54166 10.1509H5.37499C5.33332 9.8731 5.30221 9.59893 5.28166 9.32838C5.2611 9.05782 5.25055 8.77643 5.24999 8.48421C5.24999 8.19254 5.26055 7.91143 5.28166 7.64088C5.30277 7.37032 5.33388 7.09588 5.37499 6.81755H2.54166C2.47221 7.09532 2.42027 7.36977 2.38582 7.64088C2.35138 7.91199 2.33388 8.1931 2.33332 8.48421C2.33332 8.77588 2.35082 9.05727 2.38582 9.32838C2.42082 9.59949 2.47277 9.87366 2.54166 10.1509ZM7.04166 10.1509H10.9583C11 9.8731 11.0314 9.59893 11.0525 9.32838C11.0736 9.05782 11.0839 8.77643 11.0833 8.48421C11.0833 8.19254 11.0728 7.91143 11.0517 7.64088C11.0305 7.37032 10.9994 7.09588 10.9583 6.81755H7.04166C6.99999 7.09532 6.96888 7.36977 6.94832 7.64088C6.92777 7.91199 6.91721 8.1931 6.91666 8.48421C6.91666 8.77588 6.92721 9.05727 6.94832 9.32838C6.96943 9.59949 7.00055 9.87366 7.04166 10.1509ZM12.625 10.1509H15.4583C15.5278 9.8731 15.58 9.59893 15.615 9.32838C15.65 9.05782 15.6672 8.77643 15.6667 8.48421C15.6667 8.19254 15.6494 7.91143 15.615 7.64088C15.5805 7.37032 15.5283 7.09588 15.4583 6.81755H12.625C12.6667 7.09532 12.698 7.36977 12.7192 7.64088C12.7403 7.91199 12.7505 8.1931 12.75 8.48421C12.75 8.77588 12.7394 9.05727 12.7183 9.32838C12.6972 9.59949 12.6661 9.87366 12.625 10.1509ZM12.2917 5.15088H14.75C14.3472 4.45643 13.8439 3.85227 13.24 3.33838C12.6361 2.82449 11.945 2.44255 11.1667 2.19255C11.4167 2.65088 11.6355 3.12671 11.8233 3.62005C12.0111 4.11338 12.1672 4.62366 12.2917 5.15088ZM7.41666 5.15088H10.5833C10.4167 4.53977 10.2014 3.96338 9.93749 3.42171C9.6736 2.88005 9.3611 2.35921 8.99999 1.85921C8.63888 2.35921 8.32638 2.88005 8.06249 3.42171C7.7986 3.96338 7.58332 4.53977 7.41666 5.15088ZM3.24999 5.15088H5.70832C5.83332 4.6231 5.98971 4.11255 6.17749 3.61921C6.36527 3.12588 6.58388 2.65032 6.83332 2.19255C6.05554 2.44255 5.36443 2.82449 4.75999 3.33838C4.15555 3.85227 3.65221 4.45643 3.24999 5.15088Z" fill="#232323"/>
</svg>
