<svg width="24" height="24" viewBox="0 0 24 24" fill="none" xmlns="http://www.w3.org/2000/svg">
<path d="M8.57141 7.42859H17.7143M8.57141 11.9977H14.2857M8.57141 16.5714H17.7143" stroke="white" stroke-width="1.14286" stroke-linecap="round" stroke-linejoin="round"/>
<path fill-rule="evenodd" clip-rule="evenodd" d="M5.14171 8.57148C5.71314 8.57148 6.28457 8.00005 6.28457 7.42862C6.28457 6.8572 5.71314 6.28577 5.14171 6.28577C4.57029 6.28577 4 6.8572 4 7.42862C4 8.00005 4.57029 8.57148 5.14171 8.57148ZM5.14171 13.1429C5.71314 13.1429 6.28457 12.5715 6.28457 12.0001C6.28457 11.4286 5.71314 10.8572 5.14171 10.8572C4.57029 10.8572 4 11.4286 4 12.0001C4 12.5715 4.57029 13.1429 5.14171 13.1429ZM5.14171 17.7143C5.71314 17.7143 6.28457 17.1429 6.28457 16.5715C6.28457 16.0001 5.71314 15.4286 5.14171 15.4286C4.57029 15.4286 4 16.0001 4 16.5715C4 17.1429 4.57029 17.7143 5.14171 17.7143Z" fill="white"/>
</svg>
