<svg width="16" height="17" viewBox="0 0 16 17" fill="none" xmlns="http://www.w3.org/2000/svg">
<path d="M14.6555 11.3199L10.9649 9.66596C10.7976 9.59431 10.6152 9.56551 10.434 9.58215C10.2529 9.59879 10.0787 9.66036 9.92735 9.76128C9.91199 9.77114 9.89737 9.7821 9.8836 9.79409L7.9547 11.4347C7.93468 11.4456 7.9124 11.4517 7.88962 11.4525C7.86684 11.4534 7.84419 11.4489 7.82345 11.4394C6.5836 10.841 5.29923 9.5644 4.69845 8.34174C4.68844 8.32131 4.68324 8.29887 4.68324 8.27612C4.68324 8.25337 4.68844 8.23092 4.69845 8.21049L6.34454 6.25737C6.35635 6.24292 6.36731 6.22779 6.37735 6.21206C6.47687 6.06011 6.53699 5.88576 6.55226 5.70477C6.56754 5.52377 6.5375 5.34182 6.46485 5.17534L4.82267 1.49096C4.72941 1.27347 4.56812 1.09209 4.36302 0.974045C4.15793 0.856 3.92007 0.807658 3.68517 0.836275C2.66425 0.970491 1.72713 1.47185 1.04893 2.24667C0.370737 3.02148 -0.002131 4.01673 9.16201e-06 5.04643C9.16201e-06 11.1636 4.97657 16.1402 11.0938 16.1402C12.1234 16.1422 13.1186 15.7692 13.8934 15.0911C14.6681 14.4129 15.1695 13.4759 15.3039 12.455C15.3325 12.2212 15.2848 11.9844 15.168 11.7799C15.0511 11.5754 14.8714 11.414 14.6555 11.3199ZM11.0938 15.2027C5.49376 15.2027 0.937509 10.6464 0.937509 5.04643C0.934897 4.24481 1.22423 3.46967 1.75145 2.86581C2.27867 2.26196 3.00771 1.87072 3.80235 1.76518H3.82032C3.8518 1.76577 3.88238 1.77586 3.90803 1.79412C3.93368 1.81238 3.95321 1.83797 3.96407 1.86753L5.61251 5.54799C5.62191 5.56846 5.62678 5.59071 5.62678 5.61323C5.62678 5.63575 5.62191 5.658 5.61251 5.67846L3.96329 7.63628C3.95099 7.65025 3.93976 7.66514 3.9297 7.68081C3.8265 7.83835 3.76573 8.01987 3.75327 8.2078C3.74082 8.39572 3.7771 8.58368 3.8586 8.75346C4.55157 10.1722 5.98126 11.591 7.41563 12.2839C7.58641 12.365 7.77528 12.4004 7.96382 12.3867C8.15237 12.373 8.33414 12.3107 8.49142 12.2058C8.50626 12.1956 8.5211 12.1847 8.53516 12.173L10.4633 10.5324C10.4823 10.5221 10.5034 10.5161 10.5249 10.5148C10.5465 10.5134 10.5681 10.5168 10.5883 10.5246L14.2797 12.1785C14.3098 12.1913 14.3352 12.2133 14.3522 12.2413C14.3691 12.2694 14.3768 12.302 14.3742 12.3347C14.2692 13.1297 13.8784 13.8593 13.2746 14.3871C12.6709 14.9149 11.8957 15.2048 11.0938 15.2027Z" fill="#232323"/>
</svg>
