<svg width="21" height="20" viewBox="0 0 21 20" fill="none" xmlns="http://www.w3.org/2000/svg">
<path d="M10.5 9.99996C12.8012 9.99996 14.6667 8.13448 14.6667 5.83329C14.6667 3.53211 12.8012 1.66663 10.5 1.66663C8.19882 1.66663 6.33334 3.53211 6.33334 5.83329C6.33334 8.13448 8.19882 9.99996 10.5 9.99996Z" stroke="#E30613"/>
<path d="M14.6667 11.6666H14.9598C16.2205 11.6666 17.284 12.6055 17.4404 13.8565L17.7658 16.4599C17.8902 17.4546 17.1145 18.3333 16.112 18.3333H4.88797C3.88548 18.3333 3.10984 17.4546 3.23418 16.4599L3.55959 13.8565C3.71598 12.6055 4.77949 11.6666 6.04029 11.6666H6.33334" stroke="#E30613" stroke-linecap="round" stroke-linejoin="round"/>
</svg>
