<svg width="20" height="21" viewBox="0 0 20 21" fill="none" xmlns="http://www.w3.org/2000/svg">
<path d="M10 7.98421L7.08334 5.06755L10 2.15088L12.9167 5.06755L10 7.98421ZM0.833336 17.1509V13.8175C0.833336 13.3453 0.996669 12.9495 1.32334 12.63C1.65 12.3106 2.04222 12.1509 2.5 12.1509H5.22917C5.50695 12.1509 5.77084 12.2203 6.02084 12.3592C6.27084 12.4981 6.47222 12.6856 6.625 12.9217C7.02778 13.4634 7.52445 13.887 8.115 14.1925C8.70556 14.4981 9.33389 14.6509 10 14.6509C10.6806 14.6509 11.3161 14.4981 11.9067 14.1925C12.4972 13.887 12.9867 13.4634 13.375 12.9217C13.5556 12.6856 13.7675 12.4981 14.0108 12.3592C14.2542 12.2203 14.5075 12.1509 14.7708 12.1509H17.5C17.9722 12.1509 18.3681 12.3106 18.6875 12.63C19.0069 12.9495 19.1667 13.3453 19.1667 13.8175V17.1509H13.3333V15.255C12.8472 15.6023 12.3228 15.8662 11.76 16.0467C11.1972 16.2273 10.6106 16.3175 10 16.3175C9.40278 16.3175 8.81945 16.2239 8.25 16.0367C7.68056 15.8495 7.15278 15.582 6.66667 15.2342V17.1509H0.833336ZM3.33334 11.3175C2.63889 11.3175 2.04861 11.0745 1.5625 10.5884C1.07639 10.1023 0.833336 9.51199 0.833336 8.81755C0.833336 8.10921 1.07639 7.5156 1.5625 7.03671C2.04861 6.55782 2.63889 6.3181 3.33334 6.31755C4.04167 6.31755 4.63556 6.55727 5.115 7.03671C5.59445 7.51616 5.83389 8.10977 5.83334 8.81755C5.83334 9.51199 5.59389 10.1023 5.115 10.5884C4.63611 11.0745 4.04222 11.3175 3.33334 11.3175ZM16.6667 11.3175C15.9722 11.3175 15.3819 11.0745 14.8958 10.5884C14.4097 10.1023 14.1667 9.51199 14.1667 8.81755C14.1667 8.10921 14.4097 7.5156 14.8958 7.03671C15.3819 6.55782 15.9722 6.3181 16.6667 6.31755C17.375 6.31755 17.9689 6.55727 18.4483 7.03671C18.9278 7.51616 19.1672 8.10977 19.1667 8.81755C19.1667 9.51199 18.9272 10.1023 18.4483 10.5884C17.9694 11.0745 17.3756 11.3175 16.6667 11.3175Z" fill="white"/>
</svg>
